:SAMPLES-PER-SECOND 30
:FULLY-SPECIFIED
:DEGREES
75
root  -4.10528 40.7293 -2.77089 -4.3322 -68.0685 6.12817
RightUpLeg  3.37853 -2.59177 1.70774
RightLeg  -2.95268 -43.2838 4.25992
RightFoot  -4.60806 0.00753567 -0.680739
RightToes  -3.10678e-008 1.75238e-005 3.56266e-009
Spine  3.20931 1.43371 -9.02716
Spine1  0.893336 0.0576127 8.72486
HEad  -2.19992 20.3289 -1.73736
LeftShoulder1  1.94566 -2.89813 -24.1693
LeftArm  -25.113 -3.39666 -40.7887
LeftForeArm  129.847 -77.9826 -125.216
LeftHand  -0.578694 -3.91643 7.4789
RightShoulder  2.29934 3.9048 24.9726
RightArm  -9.56858 -18.4441 39.4929
RightForeArm  91.0592 79.5517 97.0208
RightHand  -0.34604 7.91331 -3.38467
LeftUpLeg  -2.74015 0.352076 3.69483
LeftLeg  -0.510889 -3.70355 0.0472139
LeftFoot  2.07611 0.747079 -6.45518
LeftToes  4.7643e-008 1.47522e-008 1.32869e-009
76
root  -4.14029 40.7107 -2.85098 -4.00107 -66.8135 5.69635
RightUpLeg  3.54773 -2.62816 1.91274
RightLeg  -3.09627 -44.4982 4.50105
RightFoot  -4.77308 0.0117557 -0.75948
RightToes  -3.10678e-008 1.75238e-005 3.56266e-009
Spine  3.13836 1.45998 -9.25089
Spine1  1.14371 0.0212958 9.00736
HEad  -2.03529 19.6524 -1.63387
LeftShoulder1  1.97004 -2.91414 -24.4834
LeftArm  -25.0875 -3.7814 -40.6983
LeftForeArm  130.91 -77.8596 -126.12
LeftHand  -0.523598 -3.72406 6.92842
RightShoulder  2.27024 3.96524 24.2966
RightArm  -10.4821 -18.8218 40.1026
RightForeArm  90.8044 79.6082 95.9844
RightHand  -0.302275 8.05812 -2.97792
LeftUpLeg  -2.88824 0.265388 3.73523
LeftLeg  -0.452337 -4.72454 0.209405
LeftFoot  2.15367 0.726792 -6.25044
LeftToes  4.7643e-008 1.47522e-008 1.32869e-009
77
root  -4.18573 40.6963 -2.92752 -3.83742 -65.5576 5.42863
RightUpLeg  3.78245 -2.69832 2.06857
RightLeg  -3.37096 -45.7059 4.84106
RightFoot  -4.9197 0.0211369 -0.918551
RightToes  -3.10678e-008 1.75238e-005 3.56266e-009
Spine  3.04506 1.33453 -9.20956
Spine1  1.37889 -0.0372415 8.58443
HEad  -1.65099 18.4896 -1.03867
LeftShoulder1  1.88124 -2.73342 -23.9235
LeftArm  -24.9565 -4.44325 -41.0974
LeftForeArm  130.313 -78.011 -125.207
LeftHand  -0.587796 -3.85381 7.65018
RightShoulder  2.31629 3.99244 24.8265
RightArm  -10.4943 -18.8858 39.5346
RightForeArm  89.1838 79.6242 94.5299
RightHand  -0.336751 8.00055 -3.28368
LeftUpLeg  -3.03861 0.212999 3.74161
LeftLeg  -0.366046 -5.89952 0.313466
LeftFoot  2.1946 0.727488 -6.23955
LeftToes  4.7643e-008 1.47522e-008 1.32869e-009
78
root  -4.22045 40.685 -2.9882 -3.81171 -64.6239 5.27263
RightUpLeg  3.94648 -2.68542 2.22934
RightLeg  -3.42321 -46.7256 4.8959
RightFoot  -5.02061 0.0147282 -0.832303
RightToes  -3.10678e-008 1.75238e-005 3.56266e-009
Spine  3.04694 1.31151 -9.42429
Spine1  1.51579 -0.128475 8.9072
HEad  -1.00199 18.1886 -0.915103
LeftShoulder1  1.99369 -3.00437 -24.4268
LeftArm  -25.0501 -4.62195 -40.3503
LeftForeArm  129.551 -77.8714 -125.686
LeftHand  -0.579524 -3.57648 7.75769
RightShoulder  2.37342 4.18193 24.8056
RightArm  -10.7981 -19.2361 39.3156
RightForeArm  88.5314 79.6411 93.726
RightHand  -0.239658 7.88574 -2.4653
LeftUpLeg  -3.14019 0.182034 3.77344
LeftLeg  -0.213044 -6.72549 0.361111
LeftFoot  2.15544 0.758125 -6.51398
LeftToes  4.7643e-008 1.47522e-008 1.32869e-009
79
root  -4.27225 40.6701 -3.03736 -3.92957 -63.8139 5.24495
RightUpLeg  4.17403 -2.80292 2.27977
RightLeg  -3.46214 -47.5008 5.01107
RightFoot  -5.16101 0.0109411 -0.786681
RightToes  -3.10678e-008 1.75238e-005 3.56266e-009
Spine  2.6751 1.23424 -9.55825
Spine1  2.22636 -0.240338 9.02523
HEad  -0.904487 17.8745 -0.953092
LeftShoulder1  1.87615 -2.64842 -24.2783
LeftArm  -24.8355 -4.94008 -40.6013
LeftForeArm  130.555 -77.9227 -125.714
LeftHand  -0.532651 -3.81101 6.98393
RightShoulder  2.36231 4.1477 24.7968
RightArm  -10.8343 -19.3134 39.4577
RightForeArm  87.9581 79.654 93.0274
RightHand  -0.288279 7.84062 -2.89104
LeftUpLeg  -3.10022 0.121682 3.72908
LeftLeg  -0.176517 -7.51268 0.415131
LeftFoot  2.18954 0.736204 -6.31469
LeftToes  4.7643e-008 1.47522e-008 1.32869e-009
80
root  -4.31554 40.6605 -3.07981 -4.03329 -63.1224 5.17435
RightUpLeg  4.42246 -2.91942 2.3285
RightLeg  -3.5187 -48.0929 5.15297
RightFoot  -5.24913 0.00640917 -0.729263
RightToes  -3.10678e-008 1.75238e-005 3.56266e-009
Spine  2.65891 1.17716 -9.31702
Spine1  2.43712 -0.225651 8.60255
HEad  -0.856217 17.5207 -0.738377
LeftShoulder1  1.86941 -2.65388 -24.1347
LeftArm  -24.6665 -4.81053 -40.7203
LeftForeArm  130.859 -77.8563 -126.122
LeftHand  -0.555583 -3.91201 7.20062
RightShoulder  2.43712 4.31053 25.1276
RightArm  -10.9022 -19.7556 39.3191
RightForeArm  88.479 79.6347 93.7972
RightHand  -0.359128 7.93381 -3.49184
LeftUpLeg  -3.07065 0.0967941 3.73962
LeftLeg  -0.0418587 -8.16856 0.445862
LeftFoot  2.13412 0.747997 -6.43775
LeftToes  4.7643e-008 1.47522e-008 1.32869e-009
81
root  -4.35069 40.652 -3.11245 -3.97597 -62.5507 5.08611
RightUpLeg  4.38636 -2.8845 2.45632
RightLeg  -3.29249 -48.7201 4.95805
RightFoot  -5.28994 0.0106397 -0.807631
RightToes  -3.10678e-008 1.75238e-005 3.56266e-009
Spine  2.72096 1.21122 -9.20524
Spine1  2.34314 -0.179334 8.55472
HEad  -0.706947 17.6863 -0.973488
LeftShoulder1  1.86491 -2.65979 -24.0283
LeftArm  -24.3837 -4.37049 -40.9813
LeftForeArm  131.481 -77.8089 -126.521
LeftHand  -0.574778 -3.90059 7.45091
RightShoulder  2.43033 4.26401 25.2314
RightArm  -10.9131 -20.0449 39.2629
RightForeArm  88.7142 79.6443 93.818
RightHand  -0.251712 7.99903 -2.55018
LeftUpLeg  -3.15406 0.0326404 3.74691
LeftLeg  0.0293088 -8.65094 0.515218
LeftFoot  2.09879 0.770047 -6.63948
LeftToes  4.7643e-008 1.47522e-008 1.32869e-009
82
root  -4.36985 40.6388 -3.16451 -3.64316 -61.8751 4.82574
RightUpLeg  4.16468 -2.75483 2.69253
RightLeg  -3.05235 -49.5546 4.76846
RightFoot  -5.26688 0.0144479 -0.878974
RightToes  -3.10678e-008 1.75238e-005 3.56266e-009
Spine  2.72861 1.14509 -9.16466
Spine1  2.42063 -0.252968 8.53011
HEad  -0.880468 17.1428 -0.996296
LeftShoulder1  1.88746 -2.72174 -24.0857
LeftArm  -24.3584 -4.1376 -40.971
LeftForeArm  131.506 -77.9082 -126.049
LeftHand  -0.589582 -4.36913 7.28438
RightShoulder  2.4406 4.2397 25.4721
RightArm  -10.8796 -19.8923 39.2011
RightForeArm  87.3688 79.6479 92.6443
RightHand  -0.308617 8.24922 -2.99924
LeftUpLeg  -3.49876 -0.00399723 3.81703
LeftLeg  0.241885 -9.36399 0.573536
LeftFoot  2.07796 0.757898 -6.54569
LeftToes  4.7643e-008 1.47522e-008 1.32869e-009
83
root  -4.35353 40.6367 -3.22022 -3.44086 -61.4811 4.69073
RightUpLeg  3.96125 -2.70028 2.81856
RightLeg  -2.9843 -50.0415 4.75094
RightFoot  -5.20933 0.0237395 -1.03494
RightToes  -3.10678e-008 1.75238e-005 3.56266e-009
Spine  2.76977 1.37133 -9.34802
Spine1  2.74597 -0.148608 9.01618
HEad  -1.39764 16.8367 -1.24172
LeftShoulder1  2.04088 -3.08306 -24.7956
LeftArm  -24.3244 -4.07947 -40.6915
LeftForeArm  131.036 -78.0144 -125.394
LeftHand  -0.650436 -4.58429 7.85687
RightShoulder  2.37669 4.12352 25.1003
RightArm  -11.2709 -19.6098 39.584
RightForeArm  87.0074 79.6556 92.184
RightHand  -0.267557 8.05167 -2.68077
LeftUpLeg  -3.70049 -0.178709 3.81126
LeftLeg  0.170312 -9.58147 0.780788
LeftFoot  2.19159 0.801666 -6.86468
LeftToes  4.7643e-008 1.47522e-008 1.32869e-009
84
root  -4.29534 40.627 -3.30472 -2.96909 -60.8342 4.33662
RightUpLeg  3.56301 -2.77683 2.953
RightLeg  -2.764 -50.5832 4.83998
RightFoot  -5.20445 0.034092 -1.20671
RightToes  -3.10678e-008 1.75238e-005 3.56266e-009
Spine  3.35311 1.39797 -9.52102
Spine1  2.58719 -0.256231 9.45611
HEad  -1.83702 15.9766 -0.861624
LeftShoulder1  2.09501 -3.20826 -25.0355
LeftArm  -24.1537 -3.90037 -40.7091
LeftForeArm  130.805 -77.9552 -125.625
LeftHand  -0.570116 -3.52346 7.67714
RightShoulder  2.41757 4.26 25.076
RightArm  -11.7326 -19.2075 39.5769
RightForeArm  86.8958 79.6707 91.7935
RightHand  -0.239708 8.07938 -2.43827
LeftUpLeg  -4.17541 -0.305933 3.89967
LeftLeg  0.225161 -10.0928 0.948039
LeftFoot  2.40009 0.824246 -6.95602
LeftToes  4.7643e-008 1.47522e-008 1.32869e-009
85
root  -4.20384 40.6212 -3.40003 -2.26242 -60.4316 4.01108
RightUpLeg  2.7941 -2.77189 3.09488
RightLeg  -2.35154 -50.8698 4.75212
RightFoot  -5.1597 0.0425962 -1.34895
RightToes  -3.10678e-008 1.75238e-005 3.56266e-009
Spine  3.80086 1.5079 -9.49551
Spine1  2.67284 -0.245132 9.66054
HEad  -2.89439 15.8342 -1.0991
LeftShoulder1  2.11831 -3.20106 -25.4255
LeftArm  -23.9975 -4.18155 -40.904
LeftForeArm  130.012 -78.0237 -125.058
LeftHand  -0.578439 -3.75029 7.61274
RightShoulder  2.38375 4.20452 24.8512
RightArm  -12.1734 -18.3935 39.8048
RightForeArm  86.9053 79.6636 91.9402
RightHand  -0.2152 8.29915 -2.20006
LeftUpLeg  -4.91739 -0.352041 4.07107
LeftLeg  0.219105 -10.4004 1.00081
LeftFoot  2.64221 0.866876 -7.19552
LeftToes  4.7643e-008 1.47522e-008 1.32869e-009
86
root  -4.10235 40.6068 -3.52068 -1.6776 -59.7381 3.7491
RightUpLeg  2.06974 -2.81622 3.21526
RightLeg  -2.04812 -51.5117 4.76775
RightFoot  -5.18487 0.0516732 -1.49916
RightToes  -3.10678e-008 1.75238e-005 3.56266e-009
Spine  4.34715 1.60671 -9.72958
Spine1  3.01201 -0.32031 10.0842
HEad  -4.1604 15.3682 -1.17027
LeftShoulder1  2.28729 -3.62405 -25.952
LeftArm  -24.0087 -4.34732 -40.7569
LeftForeArm  129.512 -78.1161 -124.443
LeftHand  -0.56432 -4.21297 7.09514
RightShoulder  2.365 4.20034 24.6145
RightArm  -12.9182 -17.5679 39.901
RightForeArm  87.3127 79.6547 92.4687
RightHand  -0.262491 8.28483 -2.6027
LeftUpLeg  -5.64528 -0.304144 4.22359
LeftLeg  0.137611 -11.1286 0.941712
LeftFoot  3.01688 0.868671 -7.03613
LeftToes  4.7643e-008 1.47522e-008 1.32869e-009
87
root  -3.96075 40.5911 -3.65667 -0.904526 -59.1708 3.33147
RightUpLeg  1.35064 -2.78561 3.41205
RightLeg  -2.19523 -52.1451 5.1666
RightFoot  -5.14037 0.0637639 -1.6952
RightToes  -3.10678e-008 1.75238e-005 3.56266e-009
Spine  5.29647 1.6514 -9.45644
Spine1  3.04229 -0.301937 9.69047
HEad  -5.03509 14.6533 -0.549859
LeftShoulder1  2.36248 -3.85822 -25.9522
LeftArm  -23.8511 -4.259 -40.8815
LeftForeArm  129.176 -78.1769 -124.029
LeftHand  -0.58585 -4.29993 7.29796
RightShoulder  2.43682 4.34966 24.9506
RightArm  -13.5164 -16.3706 39.5122
RightForeArm  86.6387 79.6422 92.0998
RightHand  -0.254074 8.31674 -2.52671
LeftUpLeg  -6.52946 -0.416652 4.38903
LeftLeg  0.157335 -11.5649 1.09701
LeftFoot  3.30909 0.921863 -7.3215
LeftToes  4.7643e-008 1.47522e-008 1.32869e-009
88
root  -3.80178 40.5734 -3.80496 -0.244858 -58.9598 3.01181
RightUpLeg  0.602364 -2.57003 3.66724
RightLeg  -2.43284 -52.6842 5.45399
RightFoot  -5.02092 0.0893644 -2.10026
RightToes  -3.10678e-008 1.75238e-005 3.56266e-009
Spine  6.02408 1.61469 -9.33079
Spine1  3.44123 -0.362538 9.24475
HEad  -5.95082 14.0056 -0.166331
LeftShoulder1  2.32148 -3.78836 -25.687
LeftArm  -23.8335 -4.00962 -41.2505
LeftForeArm  128.719 -78.3106 -123.179
LeftHand  -0.58365 -4.4376 7.17453
RightShoulder  2.67441 4.93692 25.6463
RightArm  -14.2641 -14.5812 39.0994
RightForeArm  84.1234 79.6486 89.6032
RightHand  -0.220562 8.32299 -2.24454
LeftUpLeg  -7.29735 -0.375361 4.62541
LeftLeg  0.0420626 -11.8078 1.1402
LeftFoot  3.70766 0.9795 -7.5797
LeftToes  4.7643e-008 1.47522e-008 1.32869e-009
